<svg width="24" height="24" viewBox="0 0 24 24" fill="none" xmlns="http://www.w3.org/2000/svg">
<g clip-path="url(#clip0_2061_162)">
<mask id="mask0_2061_162" style="mask-type:luminance" maskUnits="userSpaceOnUse" x="0" y="0" width="24" height="24">
<path d="M24 0H0V24H24V0Z" fill="white"/>
</mask>
<g mask="url(#mask0_2061_162)">
<path fill-rule="evenodd" clip-rule="evenodd" d="M1.25 1C0.697715 1 0.25 1.44772 0.25 2C0.25 2.55228 0.697715 3 1.25 3H2.06337C3.1029 3 3.96912 3.79636 4.05632 4.83223L4.77216 13.3355C4.94657 15.4073 6.679 17 8.75806 17H18.2252C20.3135 17 22.0504 15.3935 22.2131 13.3116L22.6818 7.31155C22.8635 4.9867 21.0259 3 18.694 3H8.25748C7.3615 3 6.53874 3.29321 5.8754 3.78603C5.35843 2.15918 3.83703 1 2.06337 1H1.25ZM6.76511 13.1678L6.4778 9.75484L6.26424 7.16431C6.16817 5.9989 7.08811 5 8.25748 5H18.694C19.86 5 20.7787 5.99335 20.6879 7.15578L20.2192 13.1558C20.1378 14.1968 19.2694 15 18.2252 15H8.75806C7.71853 15 6.85231 14.2036 6.76511 13.1678Z" fill="#4E3CDB"/>
<path d="M11 21C11 22.1046 10.1046 23 9 23C7.89543 23 7 22.1046 7 21C7 19.8954 7.89543 19 9 19C10.1046 19 11 19.8954 11 21Z" fill="#4E3CDB"/>
<path d="M20 21C20 22.1046 19.1046 23 18 23C16.8954 23 16 22.1046 16 21C16 19.8954 16.8954 19 18 19C19.1046 19 20 19.8954 20 21Z" fill="#4E3CDB"/>
</g>
</g>
<defs>
<clipPath id="clip0_2061_162">
<rect width="24" height="24" fill="white"/>
</clipPath>
</defs>
</svg>
