<svg width="24" height="24" viewBox="0 0 24 24" fill="none" xmlns="http://www.w3.org/2000/svg">
<g clip-path="url(#clip0_2061_170)">
<mask id="mask0_2061_170" style="mask-type:luminance" maskUnits="userSpaceOnUse" x="0" y="0" width="24" height="24">
<path d="M24 0H0V24H24V0Z" fill="white"/>
</mask>
<g mask="url(#mask0_2061_170)">
<path d="M10.0389 1.67191C11.1652 0.699206 12.8345 0.699207 13.9608 1.67191L23.6532 10.0431C24.0711 10.404 24.1175 11.0352 23.7567 11.4532C23.3957 11.8711 22.7645 11.9175 22.3465 11.5567L20.9998 10.3936V19.0001C20.9997 21.2091 19.2089 23.0001 16.9998 23.0001H6.99979C4.79076 23.0001 2.99992 21.2091 2.99979 19.0001V10.3936L1.65311 11.5567C1.23513 11.9175 0.603884 11.8711 0.242958 11.4532C-0.11785 11.0352 -0.0714188 10.404 0.346474 10.0431L10.0389 1.67191ZM12.6532 3.18559C12.2778 2.86158 11.7219 2.86158 11.3465 3.18559L4.99979 8.66605V19.0001C4.99992 20.1045 5.89533 21.0001 6.99979 21.0001H9.99979V15.0001C9.99979 14.4478 10.4476 14.0001 10.9998 14.0001H12.9998C13.5521 14.0001 13.9998 14.4478 13.9998 15.0001V21.0001H16.9998C18.1043 21.0001 18.9997 20.1045 18.9998 19.0001V8.66605L12.6532 3.18559Z" fill="#4E3CDB"/>
</g>
</g>
<defs>
<clipPath id="clip0_2061_170">
<rect width="24" height="24" fill="white"/>
</clipPath>
</defs>
</svg>
