<svg width="24" height="24" viewBox="0 0 24 24" fill="none" xmlns="http://www.w3.org/2000/svg">
<g clip-path="url(#clip0_2061_176)">
<mask id="mask0_2061_176" style="mask-type:luminance" maskUnits="userSpaceOnUse" x="0" y="0" width="24" height="24">
<path d="M24 0H0V24H24V0Z" fill="white"/>
</mask>
<g mask="url(#mask0_2061_176)">
<path d="M4.11909 10.6171C4.77417 6.85789 8.05334 4 12 4C16.4183 4 20 7.58172 20 12C20 16.4183 16.4183 20 12 20C9.11031 20 6.57741 18.4685 5.17015 16.1682C4.88194 15.6971 4.26638 15.5488 3.79527 15.837C3.32415 16.1252 3.17587 16.7408 3.46408 17.2119C5.21957 20.0815 8.38529 22 12 22C17.5228 22 22 17.5228 22 12C22 6.47715 17.5228 2 12 2C6.97271 2 2.81188 5.70974 2.10566 10.5411L1.8575 10.2929C1.46697 9.90237 0.833808 9.90237 0.443284 10.2929C0.0527595 10.6834 0.0527595 11.3166 0.443284 11.7071L2.44328 13.7071C2.83381 14.0976 3.46697 14.0976 3.8575 13.7071L5.8575 11.7071C6.24802 11.3166 6.24802 10.6834 5.8575 10.2929C5.46697 9.90237 4.83381 9.90237 4.44328 10.2929L4.11909 10.6171Z" fill="#4E3CDB"/>
<path d="M11 6.5C11.5523 6.5 12 6.94772 12 7.5V12H15C15.5523 12 16 12.4477 16 13C16 13.5523 15.5523 14 15 14H11.5C10.6716 14 10 13.3284 10 12.5V7.5C10 6.94772 10.4477 6.5 11 6.5Z" fill="#4E3CDB"/>
</g>
</g>
<defs>
<clipPath id="clip0_2061_176">
<rect width="24" height="24" fill="white"/>
</clipPath>
</defs>
</svg>
